<svg viewBox="0 0 1024 1024" xmlns="http://www.w3.org/2000/svg"><path d="M42.666667 512C42.666667 252.8 252.8 42.666667 512 42.666667s469.333333 210.133333 469.333333 469.333333-210.133333 469.333333-469.333333 469.333333S42.666667 771.2 42.666667 512z m94.848-85.333333a385.237333 385.237333 0 0 0 0 170.666666h168.106666A695.466667 695.466667 0 0 1 298.666667 511.146667 695.466667 695.466667 0 0 1 305.578667 426.666667H137.514667z m30.421333-85.333334h155.434667a695.552 695.552 0 0 1 91.605333-200.96A384.853333 384.853333 0 0 0 167.936 341.333333zM512 151.466667A610.133333 610.133333 0 0 0 412.330667 341.333333h199.338666A610.133333 610.133333 0 0 0 512 151.466667zM632.064 426.666667H391.936c-4.608 28.074667-7.253333 56.576-7.936 85.333333 0.64 28.757333 3.328 57.258667 7.936 85.333333h240.128c4.608-28.074667 7.253333-56.576 7.936-85.333333a609.578667 609.578667 0 0 0-7.936-85.333333z m86.357333 170.666666h168.064a385.408 385.408 0 0 0 0-170.666666h-168.106666A695.893333 695.893333 0 0 1 725.333333 512.853333a695.893333 695.893333 0 0 1-6.912 84.48z m-106.752 85.333334H412.330667A610.133333 610.133333 0 0 0 512 872.533333 610.133333 610.133333 0 0 0 611.669333 682.666667z m-196.693333 200.96A695.594667 695.594667 0 0 1 323.370667 682.666667H167.936a384.853333 384.853333 0 0 0 247.04 200.96z m194.048 0a384.853333 384.853333 0 0 0 247.04-200.96h-155.434667a695.594667 695.594667 0 0 1-91.605333 200.96zM856.064 341.333333a384.853333 384.853333 0 0 0-247.04-200.96A695.552 695.552 0 0 1 700.629333 341.333333h155.434667z" /></svg>