<svg viewBox="0 0 1024 1024" version="1.1" xmlns="http://www.w3.org/2000/svg"><path d="M579.157333 353.706667a170.666667 170.666667 0 0 0-223.146666 223.146666 173.653333 173.653333 0 0 0 63.146666 76.8 170.666667 170.666667 0 0 0 265.386667-142.08 170.666667 170.666667 0 0 0-105.386667-157.866666z m5.546667 205.226666a85.333333 85.333333 0 0 1-87.466667 36.266667 85.674667 85.674667 0 0 1-46.122666-151.594667c17.536-14.421333 40.106667-21.333333 62.762666-19.114666a85.333333 85.333333 0 0 1 85.333334 85.333333 85.333333 85.333333 0 0 1-14.506667 49.066667z"></path><path d="M934.570667 651.52a130.133333 130.133333 0 0 0-23.893334-53.76l-35.84-49.493333a62.293333 62.293333 0 0 1 0-72.106667l36.266667-49.493333c15.744-21.376 24.746667-46.933333 26.026667-73.386667a139.52 139.52 0 0 0-18.346667-75.946667 136.106667 136.106667 0 0 0-133.12-67.84l-61.013333 6.4a58.026667 58.026667 0 0 1-36.693334-7.68 59.733333 59.733333 0 0 1-25.173333-28.16l-25.173333-55.893333a136.106667 136.106667 0 0 0-50.346667-59.306667 139.093333 139.093333 0 0 0-149.333333 0 134.4 134.4 0 0 0-50.773334 59.306667l-24.746666 56.32a63.573333 63.573333 0 0 1-25.173334 27.733333 58.026667 58.026667 0 0 1-36.693333 7.68l-62.72-5.973333a140.8 140.8 0 0 0-76.8 14.08 134.826667 134.826667 0 0 0-55.893333 53.333333 139.093333 139.093333 0 0 0-18.773334 74.666667c1.706667 26.368 10.709333 51.797333 26.026667 73.386667l36.266667 49.493333a61.44 61.44 0 0 1 0 71.68l-36.266667 49.493333a142.506667 142.506667 0 0 0-26.026667 73.386667c-1.237333 26.496 5.12 52.864 18.346667 75.946667a136.106667 136.106667 0 0 0 133.12 67.84l61.013333-6.4c12.885333-1.322667 25.813333 1.365333 37.12 7.68 11.221333 6.4 20.053333 16.256 25.173334 28.16l24.746666 55.893333a137.386667 137.386667 0 0 0 128 82.346667 136.533333 136.533333 0 0 0 125.013334-81.493334l25.173333-55.893333a61.013333 61.013333 0 0 1 61.866667-35.84l61.013333 6.4a131.413333 131.413333 0 0 0 76.373333-14.08 132.693333 132.693333 0 0 0 45.653334-37.12 136.533333 136.533333 0 0 0 26.026666-52.906667 144.213333 144.213333 0 0 0-0.426666-58.453333z m-128-52.48l36.266666 49.92c5.973333 8.021333 9.429333 17.664 9.813334 27.733333a56.746667 56.746667 0 0 1-6.826667 28.586667 52.906667 52.906667 0 0 1-50.346667 25.6l-61.013333-6.826667a147.2 147.2 0 0 0-88.746667 19.2 143.36 143.36 0 0 0-58.453333 66.986667l-24.746667 55.893333a56.746667 56.746667 0 0 1-19.2 22.186667 50.773333 50.773333 0 0 1-56.32 0 46.506667 46.506667 0 0 1-19.2-22.186667l-25.173333-55.893333a142.506667 142.506667 0 0 0-60.16-67.413333 143.786667 143.786667 0 0 0-88.746667-18.773334l-61.013333 6.4a48.64 48.64 0 0 1-29.013333-5.546666 50.773333 50.773333 0 0 1-21.333334-20.053334 51.626667 51.626667 0 0 1 2.986667-56.32l36.266667-49.493333a147.2 147.2 0 0 0 0-170.666667l-36.266667-49.493333a51.626667 51.626667 0 0 1-2.986667-56.32 50.773333 50.773333 0 0 1 21.333334-20.053333 48.64 48.64 0 0 1 29.013333-5.546667l61.44 6.4a141.653333 141.653333 0 0 0 88.32-18.773333 145.493333 145.493333 0 0 0 60.16-66.986667l25.173333-56.32c3.84-9.301333 10.581333-17.066667 19.2-22.186667a50.773333 50.773333 0 0 1 56.32 0c8.234667 5.546667 14.848 13.226667 19.2 22.186667l24.746667 55.893333a147.626667 147.626667 0 0 0 59.306667 68.266667 141.653333 141.653333 0 0 0 88.32 18.773333l61.013333-6.4a52.906667 52.906667 0 0 1 50.346667 25.6 51.626667 51.626667 0 0 1-2.986667 56.32l-36.266667 49.493334a145.066667 145.066667 0 0 0 0 170.666666l-0.426666-0.853333z"></path></svg>