<svg viewBox="0 0 1024 1024" xmlns="http://www.w3.org/2000/svg"><path d="M1009.371429 409.6s-21.942857-65.828571-65.828572-204.8V87.771429c0-21.942857-14.628571-36.571429-36.571428-36.571429H117.028571c-21.942857 0-36.571429 14.628571-36.571428 36.571429v124.342857L14.628571 409.6c0 58.514286 21.942857 109.714286 65.828572 146.285714v387.657143c0 21.942857 14.628571 36.571429 36.571428 36.571429h789.942858c21.942857 0 36.571429-14.628571 36.571428-36.571429V548.571429c43.885714-29.257143 65.828571-80.457143 65.828572-138.971429z m-131.657143-292.571429v65.828572H153.6v-65.828572H877.714286zM146.285714 241.371429h738.742857l58.514286 175.542857c0 65.828571-51.2 117.028571-117.028571 117.028571-51.2 0-95.085714-29.257143-109.714286-80.457143-14.628571-21.942857-36.571429-29.257143-51.2-29.257143-21.942857 0-36.571429 7.314286-43.885714 29.257143-14.628571 43.885714-58.514286 73.142857-109.714286 73.142857s-87.771429-29.257143-109.714286-73.142857c-7.314286-21.942857-29.257143-29.257143-43.885714-29.257143-21.942857 0-36.571429 7.314286-43.885714 29.257143-14.628571 43.885714-58.514286 73.142857-109.714286 73.142857-65.828571 0-117.028571-51.2-117.028571-117.028571L146.285714 241.371429z m190.171429 665.6V702.171429h343.771428v204.8H336.457143z m541.257143 0h-138.971429V672.914286c0-14.628571-14.628571-29.257143-29.257143-29.257143H314.514286c-14.628571 0-29.257143 14.628571-29.257143 29.257143v226.742857H153.6V592.457143c14.628571 7.314286 36.571429 7.314286 51.2 7.314286 58.514286 0 117.028571-29.257143 153.6-80.457143 36.571429 43.885714 95.085714 80.457143 153.6 80.457143s117.028571-36.571429 153.6-80.457143c36.571429 43.885714 95.085714 80.457143 153.6 80.457143 21.942857 0 36.571429 0 51.2-7.314286v314.514286z"></path></svg>