<svg viewBox="0 0 1024 1024" version="1.1" xmlns="http://www.w3.org/2000/svg"><path d="M489.173333 26.069333a85.333333 85.333333 0 0 1 45.653334 0l341.333333 94.805334A85.333333 85.333333 0 0 1 938.666667 203.093333V512c0 242.453333-175.274667 449.365333-414.421334 489.216l-5.226666 0.853333a42.666667 42.666667 0 0 1-14.037334 0l-13.077333-2.218666C259.797333 957.354667 89.386667 756.842667 85.397333 520.064L85.333333 512V203.093333a85.333333 85.333333 0 0 1 62.506667-82.218666zM512 108.288L170.666667 203.093333v308.544l0.064 7.36c3.328 197.909333 147.584 365.461333 343.04 398.037334L512 916.714667l5.610667-0.981334a410.624 410.624 0 0 0 335.658666-396.224L853.333333 512V203.093333L512 108.288zM512 234.666667a170.666667 170.666667 0 0 1 42.666667 335.957333V640h42.666666a42.666667 42.666667 0 0 1 3.2 85.226667L597.333333 725.333333h-42.666666v42.666667a42.666667 42.666667 0 0 1-85.226667 3.2L469.333333 768v-197.376A170.666667 170.666667 0 0 1 512 234.666667z m0 85.333333a85.333333 85.333333 0 1 0 0 170.666667 85.333333 85.333333 0 0 0 0-170.666667z"></path></svg>